<svg xmlns="http://www.w3.org/2000/svg" xmlns:svg="http://www.w3.org/2000/svg" id="svg20" width="24" height="24" version="1.1" viewBox="0 0 24 24"><metadata id="metadata26"/><defs id="defs24"><marker style="overflow:visible" id="DotL" orient="auto" refX="0" refY="0"><path style="fill-rule:evenodd;stroke:#000;stroke-width:1pt" id="path1024" d="M -2.5,-1.0 C -2.5,1.7600000 -4.7400000,4.0 -7.5,4.0 C -10.260000,4.0 -12.5,1.7600000 -12.5,-1.0 C -12.5,-3.7600000 -10.260000,-6.0 -7.5,-6.0 C -4.7400000,-6.0 -2.5,-3.7600000 -2.5,-1.0 z" transform="scale(0.8) translate(7.4, 1)"/></marker><marker id="marker1290" orient="auto" refX="0" refY="0" style="overflow:visible"><path id="path1175" d="M 5.77,0.0 L -2.88,5.0 L -2.88,-5.0 L 5.77,0.0 z" transform="scale(0.2)" style="fill-rule:evenodd;stroke:#000;stroke-width:1pt;stroke-opacity:1;fill:#000;fill-opacity:1"/></marker><marker id="marker10187" orient="auto" refX="0" refY="0" style="overflow:visible"><path id="path10185" d="M 5.77,0.0 L -2.88,5.0 L -2.88,-5.0 L 5.77,0.0 z" transform="scale(0.2)" style="fill-rule:evenodd;stroke:#000;stroke-width:1pt;stroke-opacity:1;fill:#000;fill-opacity:1"/></marker><marker id="marker9859" orient="auto" refX="0" refY="0" style="overflow:visible"><path id="path9857" d="M 5.77,0.0 L -2.88,5.0 L -2.88,-5.0 L 5.77,0.0 z" transform="scale(0.4)" style="fill-rule:evenodd;stroke:#000;stroke-width:1pt;stroke-opacity:1;fill:#000;fill-opacity:1"/></marker><marker id="TriangleOutS" orient="auto" refX="0" refY="0" style="overflow:visible"><path id="path972" d="M 5.77,0.0 L -2.88,5.0 L -2.88,-5.0 L 5.77,0.0 z" transform="scale(0.2)" style="fill-rule:evenodd;stroke:#000;stroke-width:1pt;stroke-opacity:1;fill:#000;fill-opacity:1"/></marker><marker id="TriangleInS" orient="auto" refX="0" refY="0" style="overflow:visible"><path id="path963" d="M 5.77,0.0 L -2.88,5.0 L -2.88,-5.0 L 5.77,0.0 z" transform="scale(-0.2)" style="fill-rule:evenodd;stroke:#000;stroke-width:1pt;stroke-opacity:1;fill:#000;fill-opacity:1"/></marker><marker id="marker9486" orient="auto" refX="0" refY="0" style="overflow:visible"><path id="path9484" d="M 5.77,0.0 L -2.88,5.0 L -2.88,-5.0 L 5.77,0.0 z" transform="scale(-0.4)" style="fill-rule:evenodd;stroke:#000;stroke-width:1pt;stroke-opacity:1;fill:#000;fill-opacity:1"/></marker><marker id="marker8912" orient="auto" refX="0" refY="0" style="overflow:visible"><path id="path8910" d="M 5.77,0.0 L -2.88,5.0 L -2.88,-5.0 L 5.77,0.0 z" transform="scale(0.4)" style="fill-rule:evenodd;stroke:#000;stroke-width:1pt;stroke-opacity:1;fill:#000;fill-opacity:1"/></marker><marker id="marker8842" orient="auto" refX="0" refY="0" style="overflow:visible"><path id="path8840" d="M 5.77,0.0 L -2.88,5.0 L -2.88,-5.0 L 5.77,0.0 z" transform="scale(-0.4)" style="fill-rule:evenodd;stroke:#000;stroke-width:1pt;stroke-opacity:1;fill:#000;fill-opacity:1"/></marker><marker id="TriangleOutM" orient="auto" refX="0" refY="0" style="overflow:visible"><path id="path969" d="M 5.77,0.0 L -2.88,5.0 L -2.88,-5.0 L 5.77,0.0 z" transform="scale(0.4)" style="fill-rule:evenodd;stroke:#1f78b4;stroke-width:1pt;stroke-opacity:1;fill:#1f78b4;fill-opacity:1"/></marker><marker id="TriangleOutL" orient="auto" refX="0" refY="0" style="overflow:visible"><path id="path966" d="M 5.77,0.0 L -2.88,5.0 L -2.88,-5.0 L 5.77,0.0 z" transform="scale(0.8)" style="fill-rule:evenodd;stroke:#000;stroke-width:1pt;stroke-opacity:1;fill:#000;fill-opacity:1"/></marker><marker id="TriangleInM" orient="auto" refX="0" refY="0" style="overflow:visible"><path id="path960" d="M 5.77,0.0 L -2.88,5.0 L -2.88,-5.0 L 5.77,0.0 z" transform="scale(-0.4)" style="fill-rule:evenodd;stroke:#1f78b4;stroke-width:1pt;stroke-opacity:1;fill:#1f78b4;fill-opacity:1"/></marker><marker id="Arrow1Mstart" orient="auto" refX="0" refY="0" style="overflow:visible"><path id="path830" d="M 0.0,0.0 L 5.0,-5.0 L -12.5,0.0 L 5.0,5.0 L 0.0,0.0 z" transform="scale(0.4) translate(10,0)" style="fill-rule:evenodd;stroke:#000;stroke-width:1pt;stroke-opacity:1;fill:#000;fill-opacity:1"/></marker><marker id="Arrow2Lend" orient="auto" refX="0" refY="0" style="overflow:visible"><path id="path845" d="M 8.7185878,4.0337352 L -2.2072895,0.016013256 L 8.7185884,-4.0017078 C 6.9730900,-1.6296469 6.9831476,1.6157441 8.7185878,4.0337352 z" transform="scale(1.1) rotate(180) translate(1,0)" style="fill-rule:evenodd;stroke-width:.625;stroke-linejoin:round;stroke:#000;stroke-opacity:1;fill:#000;fill-opacity:1"/></marker><marker id="Arrow2Lstart" orient="auto" refX="0" refY="0" style="overflow:visible"><path id="path842" d="M 8.7185878,4.0337352 L -2.2072895,0.016013256 L 8.7185884,-4.0017078 C 6.9730900,-1.6296469 6.9831476,1.6157441 8.7185878,4.0337352 z" transform="scale(1.1) translate(1,0)" style="fill-rule:evenodd;stroke-width:.625;stroke-linejoin:round;stroke:#000;stroke-opacity:1;fill:#000;fill-opacity:1"/></marker><marker id="TriangleInM-8" orient="auto" refX="0" refY="0" style="overflow:visible"><path id="path960-0" d="M 5.77,0 -2.88,5 V -5 Z" transform="scale(-0.4)" style="fill:#1f78b4;fill-opacity:1;fill-rule:evenodd;stroke:#1f78b4;stroke-width:1.00000003pt;stroke-opacity:1"/></marker><marker id="TriangleOutM-4" orient="auto" refX="0" refY="0" style="overflow:visible"><path id="path969-7" d="M 5.77,0 -2.88,5 V -5 Z" transform="scale(0.4)" style="fill:#1f78b4;fill-opacity:1;fill-rule:evenodd;stroke:#1f78b4;stroke-width:1.00000003pt;stroke-opacity:1"/></marker></defs><linearGradient id="linearGradient6" x1="23" x2="23" y1="23" y2="29" gradientUnits="userSpaceOnUse"><stop id="stop2" offset="0" stop-color="#555753"/><stop id="stop4" offset="1" stop-color="#555753" stop-opacity="0"/></linearGradient><rect style="fill:#ff8080;fill-opacity:.64516127;stroke:#c00;stroke-width:.75590551;stroke-miterlimit:3.6;stroke-dasharray:none;stroke-opacity:1;paint-order:fill markers stroke;stroke-dashoffset:0;stroke-linecap:square;stroke-linejoin:miter" id="rect1023" width="10.567" height="11.241" x="11.653" y="1.649"/><path style="fill:#3bff17;fill-opacity:.471774;stroke:#21cc00;stroke-width:.755906;stroke-linecap:butt;stroke-linejoin:miter;stroke-miterlimit:4;stroke-dasharray:none;stroke-opacity:1" id="path1027" d="M 2.3380149,15.169197 9.0274429,4.8156659 16.614469,15.182024 Z"/><circle style="fill:#8090ff;fill-opacity:.645161;stroke:#001acc;stroke-width:.755906;stroke-linecap:square;stroke-linejoin:miter;stroke-miterlimit:3.6;stroke-dasharray:none;stroke-dashoffset:0;stroke-opacity:1;paint-order:fill markers stroke" id="path1025" cx="13.49" cy="16.6" r="5.696"/><rect style="opacity:1;fill:none;stroke:#1f1f1f;stroke-width:1.13385832;stroke-linecap:butt;stroke-linejoin:miter;stroke-miterlimit:5.4000001;stroke-dasharray:2.26771665,1.13385832;stroke-dashoffset:.68031499;stroke-opacity:1;paint-order:stroke markers fill" id="rect970" width="20.602" height="20.675" x="1.61" y="1.647"/></svg>