<svg xmlns="http://www.w3.org/2000/svg" xmlns:osb="http://www.openswatchbook.org/uri/2009/osb" xmlns:svg="http://www.w3.org/2000/svg" xmlns:xlink="http://www.w3.org/1999/xlink" id="svg907" width="24" height="24" enable-background="new 0 0 24 24" version="1.1" viewBox="0 0 24 24"><metadata id="metadata913"/><defs id="defs911"><linearGradient id="linearGradient5655"><stop style="stop-color:#0000e0;stop-opacity:1" id="stop5651" offset="0"/><stop style="stop-color:#0000e0;stop-opacity:0" id="stop5653" offset="1"/></linearGradient><linearGradient id="linearGradient5647" osb:paint="solid"><stop style="stop-color:#000;stop-opacity:1" id="stop5645" offset="0"/></linearGradient><linearGradient id="b-2" x1=".983" x2="23.611" y1="6.665" y2="8.644" gradientUnits="userSpaceOnUse"><stop id="stop874-6" offset="0" stop-color="#f5f5f5"/><stop id="stop876-2" offset=".25" stop-color="#e4e4e4"/><stop id="stop878-5" offset=".722" stop-color="#c9c9c9"/><stop id="stop880-3" offset="1" stop-color="#bfbfbf"/></linearGradient><linearGradient id="linearGradient5657" x1=".684" x2="23.12" y1="7.708" y2="7.708" gradientUnits="userSpaceOnUse" xlink:href="#linearGradient5655"/></defs><linearGradient id="a" x1="3.086" x2="20.912" y1="14.025" y2="10.882" gradientTransform="translate(-0.05925926,-0.5037037)" gradientUnits="userSpaceOnUse"><stop id="stop865" offset="0" stop-color="#c8e6fa"/><stop id="stop867" offset=".286" stop-color="#b7ddf6"/><stop id="stop869" offset=".852" stop-color="#8ac7eb"/><stop id="stop871" offset="1" stop-color="#7dc1e8"/></linearGradient><linearGradient id="b" x1=".983" x2="23.611" y1="6.665" y2="8.644" gradientUnits="userSpaceOnUse"><stop id="stop874" offset="0" stop-color="#f5f5f5"/><stop id="stop876" offset=".25" stop-color="#e4e4e4"/><stop id="stop878" offset=".722" stop-color="#c9c9c9"/><stop id="stop880" offset="1" stop-color="#bfbfbf"/></linearGradient><path id="path883" d="m 20.989741,11.953296 c 0,4.987 -4.054,9.039 -9.049,9.039 -4.9980003,0 -9.0490003,-4.052 -9.0490003,-9.039 0,-4.9949997 4.052,-9.0459997 9.0490003,-9.0459997 4.995,0 9.049,4.051 9.049,9.0459997 z" style="fill:url(#a);stroke:#4774b4;stroke-width:.75;stroke-linecap:round;stroke-linejoin:round"/><path id="path885" d="m 11.940741,3.3832963 c 4.762,4.763 4.762,12.3699997 0,17.1349997" style="fill:none;stroke:#4774b4;stroke-width:.75;stroke-linecap:round;stroke-linejoin:round"/><path id="path887" d="m 11.940741,3.3832963 c -4.7630003,4.763 -4.7630003,12.3699997 0,17.1349997" style="fill:none;stroke:#4774b4;stroke-width:.75;stroke-linecap:round;stroke-linejoin:round"/><path id="path889" d="m 3.3677407,11.953296 c 1.905,0 15.2400003,0 17.1460003,0" style="fill:none;stroke:#4774b4;stroke-width:.75;stroke-linecap:round;stroke-linejoin:round"/><path id="path891" d="m 18.607741,6.2412963 c -2.675,1.918 -10.3090003,2.067 -13.3350003,0" style="fill:none;stroke:#4774b4;stroke-width:.75;stroke-linecap:round;stroke-linejoin:round"/><path id="path893" d="m 18.607741,17.659296 c -3.447,-1.867 -9.7080003,-1.995 -13.3350003,0" style="fill:none;stroke:#4774b4;stroke-width:.75;stroke-linecap:round;stroke-linejoin:round"/><g id="text5048" aria-label="UTM" style="font-style:normal;font-weight:400;font-size:12px;line-height:1.25;font-family:sans-serif;letter-spacing:0;word-spacing:0;fill:#000;fill-opacity:1;stroke:#000;stroke-width:.377953;stroke-linejoin:round;stroke-miterlimit:4;stroke-dasharray:none;stroke-opacity:1;paint-order:normal"><path style="font-style:normal;font-variant:normal;font-weight:400;font-stretch:normal;font-size:10.6667px;font-family:'Arial Rounded MT Bold';-inkscape-font-specification:'Arial Rounded MT Bold, ';fill:#000;fill-opacity:1;stroke:#000;stroke-width:.377953;stroke-linejoin:round;stroke-miterlimit:4;stroke-dasharray:none;stroke-opacity:1;paint-order:normal" id="path858" d="M 0.87338234,8.3696657 V 4.6977791 q 0,-0.4687515 0.20833396,-0.7031273 0.2135424,-0.2343757 0.5572935,-0.2343757 0.3593761,0 0.5677101,0.2343757 0.2135423,0.2343758 0.2135423,0.7031273 v 3.7552202 q 0,0.640627 0.1406255,1.07292 0.1458338,0.4270847 0.5104183,0.6666687 0.3645844,0.234376 1.0208365,0.234376 0.9062529,0 1.2812541,-0.4791683 Q 5.7483977,9.4634191 5.7483977,8.4842494 V 4.6977791 q 0,-0.4739599 0.208334,-0.7031273 0.208334,-0.2343757 0.5572935,-0.2343757 0.3489594,0 0.5625017,0.2343757 0.2187507,0.2291674 0.2187507,0.7031273 v 3.6718866 q 0,0.8958361 -0.1770839,1.4947964 -0.1718755,0.5989599 -0.656252,1.0520869 -0.416668,0.385418 -0.9687531,0.562501 -0.5520851,0.177084 -1.2916707,0.177084 -0.8802112,0 -1.5156298,-0.1875 Q 2.0504694,11.275925 1.6494265,10.88009 1.2483835,10.479047 1.0608829,9.8592537 0.87338234,9.2342517 0.87338234,8.3696657 Z"/><path style="font-style:normal;font-variant:normal;font-weight:400;font-stretch:normal;font-size:10.6667px;font-family:'Arial Rounded MT Bold';-inkscape-font-specification:'Arial Rounded MT Bold, ';fill:#000;fill-opacity:1;stroke:#000;stroke-width:.377953;stroke-linejoin:round;stroke-miterlimit:4;stroke-dasharray:none;stroke-opacity:1;paint-order:normal" id="path860" d="m 13.925507,5.1665305 h -1.687505 v 5.5468925 q 0,0.479168 -0.213542,0.713544 -0.213543,0.229167 -0.552085,0.229167 -0.343751,0 -0.562502,-0.234375 -0.213542,-0.234376 -0.213542,-0.708336 V 5.1665305 H 9.0088252 q -0.3958346,0 -0.5885435,-0.1718755 -0.192709,-0.1770839 -0.192709,-0.4635431 0,-0.296876 0.1979173,-0.4687515 0.2031256,-0.1718756 0.5833352,-0.1718756 h 4.9166818 q 0.401043,0 0.593752,0.1770839 0.197918,0.1770839 0.197918,0.4635432 0,0.2864592 -0.197918,0.4635431 -0.197917,0.1718755 -0.593752,0.1718755 z"/><path style="font-style:normal;font-variant:normal;font-weight:400;font-stretch:normal;font-size:10.6667px;font-family:'Arial Rounded MT Bold';-inkscape-font-specification:'Arial Rounded MT Bold, ';fill:#000;fill-opacity:1;stroke:#000;stroke-width:.377953;stroke-linejoin:round;stroke-miterlimit:4;stroke-dasharray:none;stroke-opacity:1;paint-order:normal" id="path862" d="M 18.211979,10.37488 16.988017,5.5102816 v 5.2708504 q 0,0.437501 -0.197917,0.656252 -0.192709,0.21875 -0.515627,0.21875 -0.312501,0 -0.510418,-0.213542 -0.197917,-0.218751 -0.197917,-0.66146 V 4.7394459 q 0,-0.5000016 0.260417,-0.6718772 0.260418,-0.1770839 0.703128,-0.1770839 h 0.479168 q 0.432293,0 0.625002,0.078125 0.197917,0.078125 0.291667,0.2812509 0.09375,0.2031256 0.213543,0.6614604 L 19.248441,9.093626 20.35782,4.9113211 q 0.119792,-0.4583348 0.213542,-0.6614604 0.09375,-0.2031257 0.286459,-0.2812509 0.197917,-0.078125 0.630211,-0.078125 H 21.9672 q 0.442709,0 0.703127,0.1770839 0.260417,0.1718756 0.260417,0.6718772 v 6.0416861 q 0,0.437501 -0.197917,0.656252 -0.192709,0.21875 -0.520835,0.21875 -0.307293,0 -0.50521,-0.21875 -0.197917,-0.218751 -0.197917,-0.656252 V 5.5102816 L 20.284903,10.37488 q -0.119792,0.47396 -0.197918,0.697919 -0.07292,0.218751 -0.276042,0.401043 -0.203126,0.182292 -0.562502,0.182292 -0.270834,0 -0.458335,-0.119792 -0.1875,-0.114583 -0.291667,-0.296876 -0.104167,-0.182292 -0.166667,-0.401043 -0.05729,-0.223959 -0.119793,-0.463543 z"/></g></svg>