<svg xmlns="http://www.w3.org/2000/svg" xmlns:svg="http://www.w3.org/2000/svg" id="svg28" width="24" height="24" version="1.1"><metadata id="metadata34"/><g id="g26" transform="translate(0,-8)"><path style="opacity:.8;fill:#e6e6e6;stroke:#505050;stroke-width:.752183;stroke-linecap:round;stroke-linejoin:round;stroke-dashoffset:7" id="path2" d="m 17.96122,7 c 0,3.354712 -2.668929,6.074244 -5.96122,6.074244 C 8.707709,13.074244 6.0387797,10.354712 6.0387797,7 6.0387797,3.6452879 8.707709,0.92575645 12,0.92575645 c 3.292291,0 5.96122,2.71953145 5.96122,6.07424355 z" transform="matrix(1.3420071,0,0,1.3170365,-1.604085,8.279109)"/><path id="path4" fill="#fcffff" fill-rule="evenodd" d="m 10,13 c 2,-3 4.442248,-3.398055 6,-2 1.557752,1.398055 -2,1 -4,3 -2,2 0,6 -2,6 -1.9999999,0 -1.9999999,-4 0,-7 z" opacity=".7"/><g id="g24" stroke-linejoin="round"><path id="path8" stroke="#fcffff" stroke-linecap="round" d="m 2.0000001,29 4,-4" opacity=".5"/><g id="g20" transform="translate(8.736033,4.906424)"><path id="path14" fill="#ffcc30" fill-rule="evenodd" stroke="#505050" d="m -1.2360334,17.593576 c 0,2 2.00000001,2 2.00000001,2 0,0 -7.00000001,7 -7.00000001,7 l -2,-2 z"/><path id="path16" fill-rule="evenodd" stroke="#505050" d="m -2.7360334,19.093576 2.00000001,-2 1.99999989,2 -1.99999989,2 z"/><path id="path18" stroke="#fcffff" stroke-linecap="round" d="m -6.7360334,24.093576 4,-4" opacity=".5"/></g></g></g><circle style="fill:red;fill-rule:evenodd;stroke-width:1.29411" id="circle897" cx="14.5" cy="9.498" r="1.786"/></svg>