<svg xmlns="http://www.w3.org/2000/svg" xmlns:xlink="http://www.w3.org/1999/xlink" width="24" height="24" enable-background="new 0 0 24 24" viewBox="0 0 24 24"><linearGradient id="a" x1="3.027" x2="20.852" y1="13.522" y2="10.379" gradientUnits="userSpaceOnUse"><stop offset="0" stop-color="#c8e6fa"/><stop offset=".286" stop-color="#b7ddf6"/><stop offset=".852" stop-color="#8ac7eb"/><stop offset="1" stop-color="#7dc1e8"/></linearGradient><g stroke="#4774b4" stroke-linecap="round" stroke-linejoin="round" stroke-width=".75"><path fill="url(#a)" d="m 20.989741 11.953296 c 0 4.987 -4.054 9.039 -9.049 9.039 -4.9980003 0 -9.0490003 -4.052 -9.0490003 -9.039 0 -4.9949997 4.052 -9.0459997 9.0490003 -9.0459997 4.995 0 9.049 4.051 9.049 9.0459997 z"/><path fill="none" d="m 11.940741 3.3832963 c 4.762 4.763 4.762 12.3699997 0 17.1349997"/><path fill="none" d="m 11.940741 3.3832963 c -4.7630003 4.763 -4.7630003 12.3699997 0 17.1349997"/><path fill="none" d="m 3.3677407 11.953296 h 17.1460003"/><path fill="none" d="m 18.607741 6.2412963 c -2.675 1.918 -10.3090003 2.067 -13.3350003 0"/><path fill="none" d="m 18.607741 17.659296 c -3.447 -1.867 -9.7080003 -1.995 -13.3350003 0"/></g><path d="m 1.6650817 1.7456321 h 20.638439 v 20.473515 h -20.638439 z" style="fill:#c8c8c8;fill-opacity:.40677969;stroke:#404040;stroke-width:.94488189;stroke-linecap:square;stroke-dashoffset:42.33071136;stroke-opacity:.93333333"/><path fill="none" stroke="#404040" stroke-width=".945" d="m 8.5300465 1.7742268 .1451365 20.3877322"/><path fill="none" stroke="#404040" stroke-width=".945" d="m 15.65626 1.6741464 .145135 20.3877326"/><path fill="none" stroke="#404040" stroke-width=".945" d="m 1.7666773 15.24214 20.5513537 .114377"/><path fill="none" stroke="#404040" stroke-width=".945" d="m 1.6215404 8.4366976 20.5513546 .1143765"/></svg>